<svg width="24" height="24" viewBox="0 0 24 24" fill="none" xmlns="http://www.w3.org/2000/svg">
    <path
        d="M5.78648 3.64734C8.30156 5.5344 11.0068 9.36055 12.0001 11.4139C12.9934 9.3607 15.6985 5.53436 18.2136 3.64734C20.0284 2.28572 22.9688 1.23218 22.9688 4.58461C22.9688 5.25414 22.5847 10.209 22.3594 11.0134C21.5763 13.81 18.7229 14.5233 16.1848 14.0916C20.6214 14.8463 21.7501 17.346 19.3126 19.8457C14.6835 24.5931 12.6592 18.6545 12.1402 17.1328C12.0451 16.8539 12.0007 16.7234 12 16.8344C11.9993 16.7234 11.9549 16.8539 11.8598 17.1328C11.3411 18.6545 9.31681 24.5932 4.68738 19.8457C2.24991 17.346 3.37851 14.8461 7.81524 14.0916C5.277 14.5233 2.42356 13.81 1.64062 11.0134C1.41527 10.2089 1.03125 5.25407 1.03125 4.58461C1.03125 1.23218 3.97169 2.28572 5.78637 3.64734H5.78648Z"
        fill="currentColor" />
</svg>